<svg version="1.2" xmlns="http://www.w3.org/2000/svg" viewBox="0 0 1469 1565" width="1469" height="1565">
	<title>Mastodon_logotype_(simple)_new_hue-svg</title>
	<defs>
		<linearGradient id="g1" x2="1" gradientUnits="userSpaceOnUse" gradientTransform="matrix(0,1565,-1468.696,0,734.5,0)">
			<stop offset="0" stop-color="#6364ff"/>
			<stop offset="1" stop-color="#563acc"/>
		</linearGradient>
	</defs>
	<style>
		.s0 { fill: url(#g1) } 
		.s1 { fill: #ffffff } 
	</style>
	<path id="Layer" class="s0" d="m1462.9 346.5c-22.6-168.2-169.2-300.7-342.9-326.4-29.3-4.3-140.4-20.1-397.6-20.1h-1.9c-257.3 0-312.6 15.8-341.9 20.1-168.9 25-323.1 144.1-360.5 314.2-18 83.8-19.9 176.7-16.6 261.9 4.8 122.2 5.7 244.2 16.8 365.9 7.7 80.9 21.1 161 40 240 35.6 145.8 179.6 267.2 320.7 316.7 151 51.6 313.5 60.2 469.1 24.7q25.7-5.9 50.7-13.8c37.9-12.1 82.2-25.5 114.8-49.1q0.7-0.5 1.1-1.3 0.3-0.7 0.4-1.6v-117.9q0-0.8-0.4-1.5-0.3-0.7-1-1.2-0.6-0.5-1.4-0.6-0.7-0.2-1.5 0c-99.7 23.8-201.9 35.7-304.4 35.5-176.4 0-223.9-83.7-237.5-118.6-10.9-30.1-17.8-61.5-20.6-93.4q-0.1-0.8 0.3-1.6 0.3-0.7 0.9-1.2 0.7-0.6 1.5-0.7 0.8-0.2 1.6 0c98 23.7 198.5 35.6 299.4 35.6 24.2 0 48.4 0 72.7-0.7 101.4-2.8 208.4-8 308.2-27.5 2.5-0.5 5-0.9 7.1-1.6 157.4-30.2 307.3-125.1 322.5-365.4 0.6-9.4 2-99.1 2-108.9 0.1-33.3 10.7-236.6-1.6-361.5z"/>
	<path id="Layer" class="s1" d="m1213.5 535.4v417.7h-165.6v-405.4c0-85.4-35.5-128.9-107.9-128.9-79.5 0-119.4 51.5-119.4 153.2v222h-164.5v-222c0-101.7-39.9-153.2-119.5-153.2-71.9 0-107.8 43.5-107.8 128.9v405.4h-165.5v-417.7q0-128 65.4-203.4c45-50.2 103.9-75.9 177.1-75.9 84.8 0 148.8 32.5 191.5 97.6l41.2 69.2 41.2-69.2c42.7-65.1 106.7-97.6 191.3-97.6 73.2 0 132.2 25.7 177.3 75.9q65.3 75.3 65.2 203.4z"/>
</svg>